{
 "cells": [
  {
   "cell_type": "markdown",
   "id": "bc71c82b",
   "metadata": {},
   "source": [
    "The Mysterious Affair at Styles by Agatha Christie\n",
    "\n",
    "Source https://www.gutenberg.org/ebooks/863\n",
    "\n",
    "Ref https://en.wikipedia.org/wiki/The_Mysterious_Affair_at_Styles"
   ]
  },
  {
   "cell_type": "code",
   "execution_count": null,
   "id": "8e0fc48f",
   "metadata": {},
   "outputs": [],
   "source": [
    "# Concept art\n",
    "\n",
    "Summary: \n",
    "\n",
    "Genre: \n",
    "\n",
    "Background: \n",
    "\n",
    "Main charactor:\n",
    "\n",
    "Prompt:\n",
    "Main charactor + Background + Summary\n",
    "--ar 3:2 --no text\n",
    "\n",
    "\n",
    "=== GPT4 ===\n",
    "As image prompt generator, write prompt to generate cover image of book 'xxx' following steps below\n",
    "- Suggest 5 options of the cover images, wait for me to confirm\n",
    "- Suggest art style eg classic art, ultra-realistic, photorealism, cartoon, japanese anime, classic movie, classic photo, illustration, black and white and others as you see fit , wait for me to confirm\n",
    "- Suggest composition eg cinematic still, close up short, close up short, full body short, landscape and others as you see fit , wait for me to confirm\n",
    "- list keys elements of the image to explain scene / subject / action / setting, at least should include: era, main character, scene, evant detail, location, time of the day, atmosphere and others as you see fit\n",
    "- explain each element in detail according to choices above\n",
    "- Do not use charactors name, describe them by their visual instead\n",
    "- wait for feedback and confirm before continue to next step\n",
    "- generate prompt from explanations above start from art style, composition, era and all elements above in full detail with comma separated\n",
    "- end with ' use Midjourney v5,  --ar 16:9 --no text'\n",
    "\n",
    "\n",
    "As image prompt generator, write prompt to generate cover image of book 'The Mysterious Affair at Styles by Agatha Christie' following steps below\n",
    "- Suggest 5 options of the cover images, wait for me to confirm\n",
    "- Suggest art style eg classic art, ultra-realistic, photorealism, cartoon, japanese anime, classic movie, classic photo, illustration, black and white and others as you see fit , wait for me to confirm\n",
    "- Suggest composition eg cinematic still, close up short, close up short, full body short, landscape and others as you see fit , wait for me to confirm\n",
    "- list keys elements of the image to explain scene / subject / action / setting, at least should include: era, main character, scene, evant detail, location, time of the day, atmosphere and others as you see fit\n",
    "- explain each element in detail according to choices above\n",
    "- Do not use charactors name, describe them by their visual instead\n",
    "- wait for feedback and confirm before continue to next step\n",
    "- generate prompt from explanations above start from art style, composition, era and all elements above in full detail with comma separated\n",
    "- end with ' use Midjourney v5,  --ar 16:9 --no text'"
   ]
  },
  {
   "cell_type": "code",
   "execution_count": null,
   "id": "0229b767",
   "metadata": {},
   "outputs": [],
   "source": [
    "# Youtube description\n",
    "\n",
    "Prompt: Write title, description, and keywords of youtube video of full audiobook of the classic book \"The Mysterious Affair at Styles by Agatha Christie\"\n",
    "    \n",
    "Title: The Mysterious Affair at Styles by Agatha Christie - Full Audiobook\n",
    "\n",
    "Description: Immerse yourself in Agatha Christie's classic murder mystery, 'The Mysterious Affair at Styles.' Listen to the full audiobook and follow along as Hercule Poirot, a retired Belgian detective, unravels the twists and turns of this gripping whodunit set in a luxurious country manor during World War I. With an intricate plot, fascinating characters, and Christie's signature storytelling, this captivating audiobook will keep you on the edge of your seat until the very end. Discover why Agatha Christie is considered the 'Queen of Mystery' and experience the suspenseful tale of 'The Mysterious Affair at Styles' now.\n",
    "\n",
    "0:00:00 Chapter 1\n",
    "0:28:30 Chaptor 2\n",
    "0:46:21 Chaptor 3\n",
    "1:01:34 Chaptor 4\n",
    "1:43:54 Chaptor 5\n",
    "2:39:37 Chaptor 6\n",
    "3:05:02 Chaptor 7\n",
    "3:30:16 Chaptor 8\n",
    "4:05:05 Chaptor 9\n",
    "4:32:50 Chaptor 10\n",
    "5:05:38 Chaptor 11\n",
    "5:43:04 Chaptor 12\n",
    "6:06:35 Chaptor 13\n",
    "        \n",
    "Credits\n",
    "Text: Project Gutenberg https://www.gutenberg.org/ebooks/863\n",
    "Voice: Google Cloud Text-to-Speech\n",
    "Produced by: The Classic Narrator 2023\n",
    "    \n",
    "Keywords: Agatha Christie, The Mysterious Affair at Styles, Hercule Poirot, full audiobook, murder mystery, detective story, classic literature, crime fiction, whodunit, mystery novel, Queen of Mystery, British literature, country manor, World War I, suspense, audiobook\n"
   ]
  },
  {
   "cell_type": "code",
   "execution_count": null,
   "id": "77a554fb",
   "metadata": {},
   "outputs": [],
   "source": [
    "# Voice test\n",
    "\n",
    "from TextToAudiobook import *\n",
    "test_tta = TextToAudiobook(\"test\")\n",
    "\n",
    "\n",
    "\n",
    "text = '''\n",
    "\n",
    "xxxx\n",
    "\n",
    "'''\n",
    "\n",
    "# Test voices\n",
    "voice = texttospeech.VoiceSelectionParams(\n",
    "    language_code=\"en-GB\",\n",
    "    name=\"en-GB-Neural2-A\",\n",
    ")\n",
    "\n",
    "voice = texttospeech.VoiceSelectionParams(\n",
    "    language_code=\"en-GB\",\n",
    "    name=\"en-GB-Standard-A\",\n",
    ")\n",
    "\n",
    "\n",
    "audio_config = texttospeech.AudioConfig(\n",
    "    audio_encoding=texttospeech.AudioEncoding.MP3,\n",
    "    speaking_rate=0.9\n",
    ")\n",
    "\n",
    "test_tta.synthesize_ssml(text, \"output.mp3\", voice, audio_config)\n",
    "# test_tta.synthesize_text(text, \"output.mp3\", voice, audio_config)\n",
    "\n"
   ]
  },
  {
   "cell_type": "code",
   "execution_count": 1,
   "id": "0326b8d9",
   "metadata": {},
   "outputs": [],
   "source": [
    "%load_ext autoreload\n",
    "%reload_ext autoreload\n",
    "%autoreload 2"
   ]
  },
  {
   "cell_type": "code",
   "execution_count": 2,
   "id": "c3793734",
   "metadata": {},
   "outputs": [],
   "source": [
    "# Text to script\n",
    "\n",
    "from TextToAudiobook import *\n",
    "\n",
    "folder_name = \"TheMysteriousAffairatStyles\"\n",
    "file_name = \"863-1.txt\"\n",
    "\n",
    "test_tta = TextToAudiobook(folder_name, char_limit_per_call=1000)"
   ]
  },
  {
   "cell_type": "code",
   "execution_count": 3,
   "id": "4b63cb09",
   "metadata": {},
   "outputs": [
    {
     "name": "stdout",
     "output_type": "stream",
     "text": [
      "Clean: 8501 lines\n",
      "./TheMysteriousAffairatStyles/project_file/clean/863-1.txt\n",
      "Tag: 8501 lines\n",
      "./TheMysteriousAffairatStyles/project_file/tag/863-1.txt\n",
      "Break: 8501 lines\n",
      "./TheMysteriousAffairatStyles/project_file/break/863-1.txt\n",
      "Split: 405 files\n",
      "./TheMysteriousAffairatStyles/project_file/split/863-1_txt/\n"
     ]
    }
   ],
   "source": [
    "#1 Clean raw file and copy to clean folder\n",
    "print(test_tta.clean_txt_raw(file_name))\n",
    "\n",
    "#2 Tag speech in clean file and copy to tag folder\n",
    "print(test_tta.tag_txt_clean(file_name))\n",
    "\n",
    "#3 Mark break point by chapter and characters limit\n",
    "print(test_tta.break_txt_tag(file_name))\n",
    "\n",
    "#4 Split into files by chapter and characters break\n",
    "print(test_tta.split_txt_break(file_name))"
   ]
  },
  {
   "cell_type": "code",
   "execution_count": 13,
   "id": "750cd4eb",
   "metadata": {},
   "outputs": [
    {
     "name": "stdout",
     "output_type": "stream",
     "text": [
      "Generate audio => ./TheMysteriousAffairatStyles/project_file/audio/863-1_txt/0012_020.mp3\n",
      "Generate audio => ./TheMysteriousAffairatStyles/project_file/audio/863-1_txt/0012_021.mp3\n",
      "Generate audio => ./TheMysteriousAffairatStyles/project_file/audio/863-1_txt/0012_022.mp3\n",
      "Generate audio => ./TheMysteriousAffairatStyles/project_file/audio/863-1_txt/0013_001.mp3\n",
      "Generate audio => ./TheMysteriousAffairatStyles/project_file/audio/863-1_txt/0013_002.mp3\n",
      "Generate audio => ./TheMysteriousAffairatStyles/project_file/audio/863-1_txt/0013_003.mp3\n",
      "Generate audio => ./TheMysteriousAffairatStyles/project_file/audio/863-1_txt/0013_004.mp3\n",
      "Generate audio => ./TheMysteriousAffairatStyles/project_file/audio/863-1_txt/0013_005.mp3\n",
      "Generate audio => ./TheMysteriousAffairatStyles/project_file/audio/863-1_txt/0013_006.mp3\n",
      "Generate audio => ./TheMysteriousAffairatStyles/project_file/audio/863-1_txt/0013_007.mp3\n",
      "Generate audio => ./TheMysteriousAffairatStyles/project_file/audio/863-1_txt/0013_008.mp3\n",
      "Generate audio => ./TheMysteriousAffairatStyles/project_file/audio/863-1_txt/0013_009.mp3\n",
      "Generate audio => ./TheMysteriousAffairatStyles/project_file/audio/863-1_txt/0013_010.mp3\n",
      "Generate audio => ./TheMysteriousAffairatStyles/project_file/audio/863-1_txt/0013_011.mp3\n",
      "Generate audio => ./TheMysteriousAffairatStyles/project_file/audio/863-1_txt/0013_012.mp3\n",
      "Generate audio => ./TheMysteriousAffairatStyles/project_file/audio/863-1_txt/0013_013.mp3\n",
      "Generate audio => ./TheMysteriousAffairatStyles/project_file/audio/863-1_txt/0013_014.mp3\n",
      "Generate audio => ./TheMysteriousAffairatStyles/project_file/audio/863-1_txt/0013_015.mp3\n",
      "Generate audio => ./TheMysteriousAffairatStyles/project_file/audio/863-1_txt/0013_016.mp3\n",
      "Generate audio => ./TheMysteriousAffairatStyles/project_file/audio/863-1_txt/0013_017.mp3\n",
      "Generate audio => ./TheMysteriousAffairatStyles/project_file/audio/863-1_txt/0013_018.mp3\n",
      "Generate audio => ./TheMysteriousAffairatStyles/project_file/audio/863-1_txt/0013_019.mp3\n",
      "Generate audio => ./TheMysteriousAffairatStyles/project_file/audio/863-1_txt/0013_020.mp3\n",
      "Generate audio => ./TheMysteriousAffairatStyles/project_file/audio/863-1_txt/0013_021.mp3\n",
      "Generate audio => ./TheMysteriousAffairatStyles/project_file/audio/863-1_txt/0013_022.mp3\n",
      "Generate audio => ./TheMysteriousAffairatStyles/project_file/audio/863-1_txt/0013_023.mp3\n",
      "Generate audio => ./TheMysteriousAffairatStyles/project_file/audio/863-1_txt/0013_024.mp3\n",
      "Generate audio => ./TheMysteriousAffairatStyles/project_file/audio/863-1_txt/0013_025.mp3\n",
      "Generate audio => ./TheMysteriousAffairatStyles/project_file/audio/863-1_txt/0013_026.mp3\n",
      "Generate audio => ./TheMysteriousAffairatStyles/project_file/audio/863-1_txt/0013_027.mp3\n",
      "Generate audio => ./TheMysteriousAffairatStyles/project_file/audio/863-1_txt/0013_028.mp3\n",
      "Synthesize: 31 files\n",
      "./TheMysteriousAffairatStyles/project_file/audio/863-1_txt/\n"
     ]
    }
   ],
   "source": [
    "# Split into files by chapter and characters break\n",
    "voice = texttospeech.VoiceSelectionParams(\n",
    "    language_code=\"en-GB\",\n",
    "    name=\"en-GB-Neural2-D\",\n",
    ")\n",
    "\n",
    "audio_config = texttospeech.AudioConfig(\n",
    "    audio_encoding=texttospeech.AudioEncoding.MP3,\n",
    "    speaking_rate=0.9\n",
    ")\n",
    "print(test_tta.synthesize_txt_split(file_name, file_limit=100, voice=voice, audio_config=audio_config))\n"
   ]
  },
  {
   "cell_type": "code",
   "execution_count": 14,
   "id": "ab7994d6",
   "metadata": {},
   "outputs": [
    {
     "name": "stdout",
     "output_type": "stream",
     "text": [
      "Generate track list: ./TheMysteriousAffairatStyles/project_file/audio/863-1_txt/track_list.txt [total: 405 files]\n"
     ]
    },
    {
     "name": "stderr",
     "output_type": "stream",
     "text": [
      "ffmpeg version 5.1.2 Copyright (c) 2000-2022 the FFmpeg developers\n",
      "  built with Apple clang version 14.0.0 (clang-1400.0.29.102)\n",
      "  configuration: --prefix=/usr/local/Cellar/ffmpeg/5.1.2 --enable-shared --enable-pthreads --enable-version3 --cc=clang --host-cflags= --host-ldflags= --enable-ffplay --enable-gnutls --enable-gpl --enable-libaom --enable-libbluray --enable-libdav1d --enable-libmp3lame --enable-libopus --enable-librav1e --enable-librist --enable-librubberband --enable-libsnappy --enable-libsrt --enable-libtesseract --enable-libtheora --enable-libvidstab --enable-libvmaf --enable-libvorbis --enable-libvpx --enable-libwebp --enable-libx264 --enable-libx265 --enable-libxml2 --enable-libxvid --enable-lzma --enable-libfontconfig --enable-libfreetype --enable-frei0r --enable-libass --enable-libopencore-amrnb --enable-libopencore-amrwb --enable-libopenjpeg --enable-libspeex --enable-libsoxr --enable-libzmq --enable-libzimg --disable-libjack --disable-indev=jack --enable-videotoolbox\n",
      "  libavutil      57. 28.100 / 57. 28.100\n",
      "  libavcodec     59. 37.100 / 59. 37.100\n",
      "  libavformat    59. 27.100 / 59. 27.100\n",
      "  libavdevice    59.  7.100 / 59.  7.100\n",
      "  libavfilter     8. 44.100 /  8. 44.100\n",
      "  libswscale      6.  7.100 /  6.  7.100\n",
      "  libswresample   4.  7.100 /  4.  7.100\n",
      "  libpostproc    56.  6.100 / 56.  6.100\n",
      "[mp3 @ 0x7fd5b2a118c0] Estimating duration from bitrate, this may be inaccurate\n",
      "Input #0, concat, from './TheMysteriousAffairatStyles/project_file/audio/863-1_txt/track_list.txt':\n",
      "  Duration: N/A, start: 0.000000, bitrate: 32 kb/s\n",
      "  Stream #0:0: Audio: mp3, 24000 Hz, mono, fltp, 32 kb/s\n",
      "Output #0, mp3, to './TheMysteriousAffairatStyles/project_file/audio/863-1_txt.mp3':\n",
      "  Metadata:\n",
      "    TSSE            : Lavf59.27.100\n",
      "  Stream #0:0: Audio: mp3, 24000 Hz, mono, fltp, 32 kb/s\n",
      "Stream mapping:\n",
      "  Stream #0:0 -> #0:0 (copy)\n",
      "Press [q] to stop, [?] for help\n",
      "[mp3 @ 0x7fd5b1f04a40] Estimating duration from bitrate, this may be inaccurate\n",
      "[mp3 @ 0x7fd5b2a11680] Estimating duration from bitrate, this may be inaccurate\n",
      "[mp3 @ 0x7fd5b1f04a00] Estimating duration from bitrate, this may be inaccurate\n",
      "[mp3 @ 0x7fd5b2d04080] Estimating duration from bitrate, this may be inaccurate\n",
      "[mp3 @ 0x7fd5b2904280] Estimating duration from bitrate, this may be inaccurate\n",
      "[mp3 @ 0x7fd5b2c04140] Estimating duration from bitrate, this may be inaccurate\n",
      "[mp3 @ 0x7fd5b2a11680] Estimating duration from bitrate, this may be inaccurate\n",
      "[mp3 @ 0x7fd5b2804a40] Estimating duration from bitrate, this may be inaccurate\n",
      "[mp3 @ 0x7fd5b1f060c0] Estimating duration from bitrate, this may be inaccurate\n",
      "    Last message repeated 3 times\n",
      "[mp3 @ 0x7fd5b2804a40] Estimating duration from bitrate, this may be inaccurate\n",
      "[mp3 @ 0x7fd5b2a11680] Estimating duration from bitrate, this may be inaccurate\n",
      "[mp3 @ 0x7fd5b2804c00] Estimating duration from bitrate, this may be inaccurate\n",
      "[mp3 @ 0x7fd5b1f04b80] Estimating duration from bitrate, this may be inaccurate\n",
      "[mp3 @ 0x7fd5b2804a40] Estimating duration from bitrate, this may be inaccurate\n",
      "[mp3 @ 0x7fd5b2904280] Estimating duration from bitrate, this may be inaccurate\n",
      "[mp3 @ 0x7fd5b2804a40] Estimating duration from bitrate, this may be inaccurate\n",
      "[mp3 @ 0x7fd5b1f04c80] Estimating duration from bitrate, this may be inaccurate\n",
      "[mp3 @ 0x7fd5b2804c00] Estimating duration from bitrate, this may be inaccurate\n",
      "[mp3 @ 0x7fd5b2a11680] Estimating duration from bitrate, this may be inaccurate\n",
      "[mp3 @ 0x7fd5b2804a80] Estimating duration from bitrate, this may be inaccurate\n",
      "[mp3 @ 0x7fd5b1f04a00] Estimating duration from bitrate, this may be inaccurate\n",
      "[mp3 @ 0x7fd5b2804a40] Estimating duration from bitrate, this may be inaccurate\n",
      "[mp3 @ 0x7fd5b2804d80] Estimating duration from bitrate, this may be inaccurate\n",
      "[mp3 @ 0x7fd5b2804a40] Estimating duration from bitrate, this may be inaccurate\n",
      "[mp3 @ 0x7fd5b2a11680] Estimating duration from bitrate, this may be inaccurate\n",
      "    Last message repeated 2 times\n",
      "[mp3 @ 0x7fd5b2904380] Estimating duration from bitrate, this may be inaccurate\n",
      "[mp3 @ 0x7fd5b2a11680] Estimating duration from bitrate, this may be inaccurate\n",
      "    Last message repeated 1 times\n",
      "[mp3 @ 0x7fd5b2a11680] Estimating duration from bitrate, this may be inaccurate\n",
      "[mp3 @ 0x7fd5b2904280] Estimating duration from bitrate, this may be inaccurate\n",
      "[mp3 @ 0x7fd5b2804a40] Estimating duration from bitrate, this may be inaccurate\n",
      "[mp3 @ 0x7fd5b2a11680] Estimating duration from bitrate, this may be inaccurate\n",
      "[mp3 @ 0x7fd5b2804c00] Estimating duration from bitrate, this may be inaccurate\n",
      "[mp3 @ 0x7fd5b2804b00] Estimating duration from bitrate, this may be inaccurate\n",
      "[mp3 @ 0x7fd5b2804a40] Estimating duration from bitrate, this may be inaccurate\n",
      "[mp3 @ 0x7fd5b2904280] Estimating duration from bitrate, this may be inaccurate\n",
      "[mp3 @ 0x7fd5b2804a40] Estimating duration from bitrate, this may be inaccurate\n",
      "[mp3 @ 0x7fd5b2804d80] Estimating duration from bitrate, this may be inaccurate\n",
      "[mp3 @ 0x7fd5b2804a40] Estimating duration from bitrate, this may be inaccurate\n",
      "    Last message repeated 2 times\n",
      "[mp3 @ 0x7fd5b2a11680] Estimating duration from bitrate, this may be inaccurate\n",
      "[mp3 @ 0x7fd5b2a11ac0] Estimating duration from bitrate, this may be inaccurate\n",
      "[mp3 @ 0x7fd5b2904280] Estimating duration from bitrate, this may be inaccurate\n",
      "[mp3 @ 0x7fd5b2905c80] Estimating duration from bitrate, this may be inaccurate\n",
      "[mp3 @ 0x7fd5b1f04a00] Estimating duration from bitrate, this may be inaccurate\n",
      "    Last message repeated 1 times\n",
      "[mp3 @ 0x7fd5b2804a40] Estimating duration from bitrate, this may be inaccurate\n",
      "    Last message repeated 3 times\n",
      "[mp3 @ 0x7fd5b2a11680] Estimating duration from bitrate, this may be inaccurate\n",
      "    Last message repeated 1 times\n",
      "[mp3 @ 0x7fd5b2804a40] Estimating duration from bitrate, this may be inaccurate\n",
      "[mp3 @ 0x7fd5b1f04a00] Estimating duration from bitrate, this may be inaccurate\n",
      "    Last message repeated 3 times\n",
      "[mp3 @ 0x7fd5b2804a80] Estimating duration from bitrate, this may be inaccurate\n",
      "[mp3 @ 0x7fd5b1f09380] Estimating duration from bitrate, this may be inaccurate\n",
      "[mp3 @ 0x7fd5b2804a40] Estimating duration from bitrate, this may be inaccurate\n",
      "    Last message repeated 1 times\n",
      "[mp3 @ 0x7fd5b1f04a00] Estimating duration from bitrate, this may be inaccurate\n",
      "[mp3 @ 0x7fd5b2804a40] Estimating duration from bitrate, this may be inaccurate\n",
      "[mp3 @ 0x7fd5b29042c0] Estimating duration from bitrate, this may be inaccurate\n",
      "    Last message repeated 1 times\n",
      "[mp3 @ 0x7fd5b2a11680] Estimating duration from bitrate, this may be inaccurate\n",
      "[mp3 @ 0x7fd5b1f04a00] Estimating duration from bitrate, this may be inaccurate\n",
      "[mp3 @ 0x7fd5b2c04080] Estimating duration from bitrate, this may be inaccurate\n",
      "[mp3 @ 0x7fd5b2804a40] Estimating duration from bitrate, this may be inaccurate\n",
      "[mp3 @ 0x7fd5b2904280] Estimating duration from bitrate, this may be inaccurate\n",
      "[mp3 @ 0x7fd5b2a11680] Estimating duration from bitrate, this may be inaccurate\n",
      "[mp3 @ 0x7fd5b2804a40] Estimating duration from bitrate, this may be inaccurate\n",
      "[mp3 @ 0x7fd5b2904280] Estimating duration from bitrate, this may be inaccurate\n",
      "[mp3 @ 0x7fd5b2804a40] Estimating duration from bitrate, this may be inaccurate\n",
      "[mp3 @ 0x7fd5b1f04a00] Estimating duration from bitrate, this may be inaccurate\n",
      "[mp3 @ 0x7fd5b2a11680] Estimating duration from bitrate, this may be inaccurate\n",
      "[mp3 @ 0x7fd5b2804a40] Estimating duration from bitrate, this may be inaccurate\n",
      "    Last message repeated 10 times\n",
      "[mp3 @ 0x7fd5b1f04a00] Estimating duration from bitrate, this may be inaccurate\n",
      "[mp3 @ 0x7fd5b2a11680] Estimating duration from bitrate, this may be inaccurate\n",
      "[mp3 @ 0x7fd5b2904280] Estimating duration from bitrate, this may be inaccurate\n",
      "[mp3 @ 0x7fd5b2804a40] Estimating duration from bitrate, this may be inaccurate\n",
      "[mp3 @ 0x7fd5b2a11680] Estimating duration from bitrate, this may be inaccurate\n",
      "[mp3 @ 0x7fd5b2804a40] Estimating duration from bitrate, this may be inaccurate\n",
      "[mp3 @ 0x7fd5b2a11680] Estimating duration from bitrate, this may be inaccurate\n",
      "[mp3 @ 0x7fd5b2804d40] Estimating duration from bitrate, this may be inaccurate\n",
      "[mp3 @ 0x7fd5b2804bc0] Estimating duration from bitrate, this may be inaccurate\n",
      "[mp3 @ 0x7fd5b2804b80] Estimating duration from bitrate, this may be inaccurate\n",
      "[mp3 @ 0x7fd5b2904440] Estimating duration from bitrate, this may be inaccurate\n",
      "[mp3 @ 0x7fd5b2904400] Estimating duration from bitrate, this may be inaccurate\n",
      "[mp3 @ 0x7fd5b2805180] Estimating duration from bitrate, this may be inaccurate\n",
      "[mp3 @ 0x7fd5b2904280] Estimating duration from bitrate, this may be inaccurate\n",
      "[mp3 @ 0x7fd5b2804a40] Estimating duration from bitrate, this may be inaccurate\n",
      "[mp3 @ 0x7fd5b2804d80] Estimating duration from bitrate, this may be inaccurate\n"
     ]
    },
    {
     "name": "stderr",
     "output_type": "stream",
     "text": [
      "[mp3 @ 0x7fd5b2804c40] Estimating duration from bitrate, this may be inaccurate\n",
      "[mp3 @ 0x7fd5b2904280] Estimating duration from bitrate, this may be inaccurate\n",
      "[mp3 @ 0x7fd5b2804a80] Estimating duration from bitrate, this may be inaccurate\n",
      "[mp3 @ 0x7fd5b1f04a00] Estimating duration from bitrate, this may be inaccurate\n",
      "[mp3 @ 0x7fd5b2804a40] Estimating duration from bitrate, this may be inaccurate\n",
      "[mp3 @ 0x7fd5b2804d80] Estimating duration from bitrate, this may be inaccurate\n",
      "[mp3 @ 0x7fd5b2804a40] Estimating duration from bitrate, this may be inaccurate\n",
      "[mp3 @ 0x7fd5b2904280] Estimating duration from bitrate, this may be inaccurate\n",
      "[mp3 @ 0x7fd5b1f04a00] Estimating duration from bitrate, this may be inaccurate\n",
      "[mp3 @ 0x7fd5b1f092c0] Estimating duration from bitrate, this may be inaccurate\n",
      "[mp3 @ 0x7fd5b2a11680] Estimating duration from bitrate, this may be inaccurate\n",
      "    Last message repeated 1 times\n",
      "[mp3 @ 0x7fd5b2804a40] Estimating duration from bitrate, this may be inaccurate\n",
      "    Last message repeated 1 times\n",
      "[mp3 @ 0x7fd5b1f092c0] Estimating duration from bitrate, this may be inaccurate\n",
      "[mp3 @ 0x7fd5b2a11680] Estimating duration from bitrate, this may be inaccurate\n",
      "    Last message repeated 1 times\n",
      "[mp3 @ 0x7fd5b1f092c0] Estimating duration from bitrate, this may be inaccurate\n",
      "[mp3 @ 0x7fd5b2804a40] Estimating duration from bitrate, this may be inaccurate\n",
      "[mp3 @ 0x7fd5b2a11680] Estimating duration from bitrate, this may be inaccurate\n",
      "[mp3 @ 0x7fd5b2804a40] Estimating duration from bitrate, this may be inaccurate\n",
      "[mp3 @ 0x7fd5b2804d80] Estimating duration from bitrate, this may be inaccurate\n",
      "[mp3 @ 0x7fd5b2804c40] Estimating duration from bitrate, this may be inaccurate\n",
      "[mp3 @ 0x7fd5b2804c00] Estimating duration from bitrate, this may be inaccurate\n",
      "[mp3 @ 0x7fd5b1f04c00] Estimating duration from bitrate, this may be inaccurate\n",
      "[mp3 @ 0x7fd5b2804a40] Estimating duration from bitrate, this may be inaccurate\n",
      "[mp3 @ 0x7fd5b2804d80] Estimating duration from bitrate, this may be inaccurate\n",
      "[mp3 @ 0x7fd5b1f092c0] Estimating duration from bitrate, this may be inaccurate\n",
      "[mp3 @ 0x7fd5b2804a40] Estimating duration from bitrate, this may be inaccurate\n",
      "[mp3 @ 0x7fd5b2a11680] Estimating duration from bitrate, this may be inaccurate\n",
      "[mp3 @ 0x7fd5b2804a40] Estimating duration from bitrate, this may be inaccurate\n",
      "[mp3 @ 0x7fd5b2805700] Estimating duration from bitrate, this may be inaccurate\n",
      "[mp3 @ 0x7fd5b2a11680] Estimating duration from bitrate, this may be inaccurate\n",
      "[mp3 @ 0x7fd5b2904280] Estimating duration from bitrate, this may be inaccurate\n",
      "[mp3 @ 0x7fd5b2804a40] Estimating duration from bitrate, this may be inaccurate\n",
      "[mp3 @ 0x7fd5b2804e00] Estimating duration from bitrate, this may be inaccurate\n",
      "[mp3 @ 0x7fd5b2a118c0] Estimating duration from bitrate, this may be inaccurate\n",
      "[mp3 @ 0x7fd5b2804a40] Estimating duration from bitrate, this may be inaccurate\n",
      "[mp3 @ 0x7fd5b2804d80] Estimating duration from bitrate, this may be inaccurate\n",
      "[mp3 @ 0x7fd5b2804c40] Estimating duration from bitrate, this may be inaccurate\n",
      "[mp3 @ 0x7fd5b2804c00] Estimating duration from bitrate, this may be inaccurate\n",
      "[mp3 @ 0x7fd5b2904280] Estimating duration from bitrate, this may be inaccurate\n",
      "[mp3 @ 0x7fd5b2804a40] Estimating duration from bitrate, this may be inaccurate\n",
      "[mp3 @ 0x7fd5b2904280] Estimating duration from bitrate, this may be inaccurate\n",
      "[mp3 @ 0x7fd5b2804a40] Estimating duration from bitrate, this may be inaccurate\n",
      "    Last message repeated 1 times\n",
      "[mp3 @ 0x7fd5b2a11680] Estimating duration from bitrate, this may be inaccurate\n",
      "[mp3 @ 0x7fd5b2804a40] Estimating duration from bitrate, this may be inaccurate\n",
      "[mp3 @ 0x7fd5b2a11680] Estimating duration from bitrate, this may be inaccurate\n",
      "    Last message repeated 1 times\n",
      "[mp3 @ 0x7fd5b2904280] Estimating duration from bitrate, this may be inaccurate\n",
      "[mp3 @ 0x7fd5b2804a40] Estimating duration from bitrate, this may be inaccurate\n",
      "    Last message repeated 1 times\n",
      "[mp3 @ 0x7fd5b1f09540] Estimating duration from bitrate, this may be inaccurate\n",
      "[mp3 @ 0x7fd5b2804a40] Estimating duration from bitrate, this may be inaccurate\n",
      "[mp3 @ 0x7fd5b2804d80] Estimating duration from bitrate, this may be inaccurate\n",
      "[mp3 @ 0x7fd5b2804a40] Estimating duration from bitrate, this may be inaccurate\n",
      "    Last message repeated 9 times\n",
      "[mp3 @ 0x7fd5b1f092c0] Estimating duration from bitrate, this may be inaccurate\n",
      "[mp3 @ 0x7fd5b2a11880] Estimating duration from bitrate, this may be inaccurate\n",
      "[mp3 @ 0x7fd5b2804a40] Estimating duration from bitrate, this may be inaccurate\n",
      "    Last message repeated 2 times\n",
      "[mp3 @ 0x7fd5b2805040] Estimating duration from bitrate, this may be inaccurate\n",
      "[mp3 @ 0x7fd5b2804cc0] Estimating duration from bitrate, this may be inaccurate\n",
      "[mp3 @ 0x7fd5b2804b80] Estimating duration from bitrate, this may be inaccurate\n",
      "[mp3 @ 0x7fd5b2804a40] Estimating duration from bitrate, this may be inaccurate\n",
      "    Last message repeated 1 times\n",
      "[mp3 @ 0x7fd5b1f04ac0] Estimating duration from bitrate, this may be inaccurate\n",
      "[mp3 @ 0x7fd5b1f092c0] Estimating duration from bitrate, this may be inaccurate\n",
      "[mp3 @ 0x7fd5b2a11680] Estimating duration from bitrate, this may be inaccurate\n",
      "[mp3 @ 0x7fd5b2804d80] Estimating duration from bitrate, this may be inaccurate\n",
      "[mp3 @ 0x7fd5b2804d00] Estimating duration from bitrate, this may be inaccurate\n",
      "[mp3 @ 0x7fd5b2804cc0] Estimating duration from bitrate, this may be inaccurate\n",
      "[mp3 @ 0x7fd5b2a11780] Estimating duration from bitrate, this may be inaccurate\n",
      "[mp3 @ 0x7fd5b1f04f80] Estimating duration from bitrate, this may be inaccurate\n",
      "[mp3 @ 0x7fd5b2904280] Estimating duration from bitrate, this may be inaccurate\n",
      "[mp3 @ 0x7fd5b2804a40] Estimating duration from bitrate, this may be inaccurate\n",
      "[mp3 @ 0x7fd5b2904280] Estimating duration from bitrate, this may be inaccurate\n",
      "[mp3 @ 0x7fd5b1f04a00] Estimating duration from bitrate, this may be inaccurate\n",
      "[mp3 @ 0x7fd5b2904440] Estimating duration from bitrate, this may be inaccurate\n",
      "[mp3 @ 0x7fd5b2804a40] Estimating duration from bitrate, this may be inaccurate\n",
      "[mp3 @ 0x7fd5b2a11680] Estimating duration from bitrate, this may be inaccurate\n",
      "[mp3 @ 0x7fd5b2804a40] Estimating duration from bitrate, this may be inaccurate\n",
      "[mp3 @ 0x7fd5b1f04b80] Estimating duration from bitrate, this may be inaccurate\n",
      "[mp3 @ 0x7fd5b2a11680] Estimating duration from bitrate, this may be inaccurate\n",
      "[mp3 @ 0x7fd5b2904280] Estimating duration from bitrate, this may be inaccurate\n",
      "[mp3 @ 0x7fd5b2804a40] Estimating duration from bitrate, this may be inaccurate\n",
      "[mp3 @ 0x7fd5b2904280] Estimating duration from bitrate, this may be inaccurate\n",
      "[mp3 @ 0x7fd5b2804a40] Estimating duration from bitrate, this may be inaccurate\n",
      "[mp3 @ 0x7fd5b1f04a00] Estimating duration from bitrate, this may be inaccurate\n",
      "[mp3 @ 0x7fd5b2804a40] Estimating duration from bitrate, this may be inaccurate\n",
      "    Last message repeated 2 times\n",
      "[mp3 @ 0x7fd5b2904280] Estimating duration from bitrate, this may be inaccurate\n",
      "[mp3 @ 0x7fd5b2804a40] Estimating duration from bitrate, this may be inaccurate\n",
      "[mp3 @ 0x7fd5b29042c0] Estimating duration from bitrate, this may be inaccurate\n",
      "[mp3 @ 0x7fd5b1f04a00] Estimating duration from bitrate, this may be inaccurate\n",
      "    Last message repeated 1 times\n",
      "[mp3 @ 0x7fd5b2804a40] Estimating duration from bitrate, this may be inaccurate\n",
      "    Last message repeated 2 times\n",
      "[mp3 @ 0x7fd5b2804a40] Estimating duration from bitrate, this may be inaccurate\n",
      "[mp3 @ 0x7fd5b29042c0] Estimating duration from bitrate, this may be inaccurate\n",
      "[mp3 @ 0x7fd5b2a11680] Estimating duration from bitrate, this may be inaccurate\n",
      "[mp3 @ 0x7fd5b2804a40] Estimating duration from bitrate, this may be inaccurate\n",
      "[mp3 @ 0x7fd5b1f04a00] Estimating duration from bitrate, this may be inaccurate\n",
      "[mp3 @ 0x7fd5b2804a40] Estimating duration from bitrate, this may be inaccurate\n",
      "    Last message repeated 1 times\n",
      "[mp3 @ 0x7fd5b2904280] Estimating duration from bitrate, this may be inaccurate\n",
      "[mp3 @ 0x7fd5b2804a40] Estimating duration from bitrate, this may be inaccurate\n",
      "    Last message repeated 2 times\n",
      "[mp3 @ 0x7fd5b2804d80] Estimating duration from bitrate, this may be inaccurate\n",
      "[mp3 @ 0x7fd5b2804a40] Estimating duration from bitrate, this may be inaccurate\n"
     ]
    },
    {
     "name": "stderr",
     "output_type": "stream",
     "text": [
      "    Last message repeated 5 times\n",
      "[mp3 @ 0x7fd5b1f04e80] Estimating duration from bitrate, this may be inaccurate\n",
      "[mp3 @ 0x7fd5b2804a40] Estimating duration from bitrate, this may be inaccurate\n",
      "[mp3 @ 0x7fd5b2804fc0] Estimating duration from bitrate, this may be inaccurate\n",
      "[mp3 @ 0x7fd5b2804a40] Estimating duration from bitrate, this may be inaccurate\n",
      "[mp3 @ 0x7fd5b2904280] Estimating duration from bitrate, this may be inaccurate\n",
      "[mp3 @ 0x7fd5b2804a40] Estimating duration from bitrate, this may be inaccurate\n",
      "[mp3 @ 0x7fd5b2804d80] Estimating duration from bitrate, this may be inaccurate\n",
      "[mp3 @ 0x7fd5b2804a40] Estimating duration from bitrate, this may be inaccurate\n",
      "    Last message repeated 3 times\n",
      "[mp3 @ 0x7fd5b2904280] Estimating duration from bitrate, this may be inaccurate\n",
      "[mp3 @ 0x7fd5b2a11680] Estimating duration from bitrate, this may be inaccurate\n",
      "    Last message repeated 1 times\n",
      "[mp3 @ 0x7fd5b1f04a00] Estimating duration from bitrate, this may be inaccurate\n",
      "[mp3 @ 0x7fd5b2804a40] Estimating duration from bitrate, this may be inaccurate\n",
      "[mp3 @ 0x7fd5b2805700] Estimating duration from bitrate, this may be inaccurate\n",
      "[mp3 @ 0x7fd5b2804c80] Estimating duration from bitrate, this may be inaccurate\n",
      "[mp3 @ 0x7fd5b2804b80] Estimating duration from bitrate, this may be inaccurate\n",
      "[mp3 @ 0x7fd5b1f04a00] Estimating duration from bitrate, this may be inaccurate\n",
      "[mp3 @ 0x7fd5b2804a40] Estimating duration from bitrate, this may be inaccurate\n",
      "[mp3 @ 0x7fd5b2804d80] Estimating duration from bitrate, this may be inaccurate\n",
      "[mp3 @ 0x7fd5b2804a40] Estimating duration from bitrate, this may be inaccurate\n",
      "[mp3 @ 0x7fd5b2a11900] Estimating duration from bitrate, this may be inaccurate\n",
      "[mp3 @ 0x7fd5b2804a40] Estimating duration from bitrate, this may be inaccurate\n",
      "[mp3 @ 0x7fd5b2804d80] Estimating duration from bitrate, this may be inaccurate\n",
      "[mp3 @ 0x7fd5b2804a40] Estimating duration from bitrate, this may be inaccurate\n",
      "[mp3 @ 0x7fd5b2a11680] Estimating duration from bitrate, this may be inaccurate\n",
      "[mp3 @ 0x7fd5b2804a40] Estimating duration from bitrate, this may be inaccurate\n",
      "[mp3 @ 0x7fd5b2804d80] Estimating duration from bitrate, this may be inaccurate\n",
      "[mp3 @ 0x7fd5b2804a40] Estimating duration from bitrate, this may be inaccurate\n",
      "[mp3 @ 0x7fd5b1f04a00] Estimating duration from bitrate, this may be inaccurate\n",
      "[mp3 @ 0x7fd5b2a11680] Estimating duration from bitrate, this may be inaccurate\n",
      "    Last message repeated 1 times\n",
      "[mp3 @ 0x7fd5b2904280] Estimating duration from bitrate, this may be inaccurate\n",
      "[mp3 @ 0x7fd5b1f092c0] Estimating duration from bitrate, this may be inaccurate\n",
      "[mp3 @ 0x7fd5b2904280] Estimating duration from bitrate, this may be inaccurate\n",
      "[mp3 @ 0x7fd5b2804a40] Estimating duration from bitrate, this may be inaccurate\n",
      "    Last message repeated 7 times\n",
      "[mp3 @ 0x7fd5b1f092c0] Estimating duration from bitrate, this may be inaccurate\n",
      "[mp3 @ 0x7fd5b2804a40] Estimating duration from bitrate, this may be inaccurate\n",
      "[mp3 @ 0x7fd5b2805700] Estimating duration from bitrate, this may be inaccurate\n",
      "[mp3 @ 0x7fd5b2804c40] Estimating duration from bitrate, this may be inaccurate\n",
      "[mp3 @ 0x7fd5b2804c00] Estimating duration from bitrate, this may be inaccurate\n",
      "[mp3 @ 0x7fd5b2804bc0] Estimating duration from bitrate, this may be inaccurate\n",
      "[mp3 @ 0x7fd5b1f092c0] Estimating duration from bitrate, this may be inaccurate\n",
      "[mp3 @ 0x7fd5b2a11680] Estimating duration from bitrate, this may be inaccurate\n",
      "[mp3 @ 0x7fd5b1f092c0] Estimating duration from bitrate, this may be inaccurate\n",
      "[mp3 @ 0x7fd5b2804a40] Estimating duration from bitrate, this may be inaccurate\n",
      "[mp3 @ 0x7fd5b2a11680] Estimating duration from bitrate, this may be inaccurate\n",
      "[mp3 @ 0x7fd5b2804cc0] Estimating duration from bitrate, this may be inaccurate\n",
      "[mp3 @ 0x7fd5b2804b00] Estimating duration from bitrate, this may be inaccurate\n",
      "[mp3 @ 0x7fd5b2804a40] Estimating duration from bitrate, this may be inaccurate\n",
      "[mp3 @ 0x7fd5b1f092c0] Estimating duration from bitrate, this may be inaccurate\n",
      "[mp3 @ 0x7fd5b2804a40] Estimating duration from bitrate, this may be inaccurate\n",
      "[mp3 @ 0x7fd5b2804e00] Estimating duration from bitrate, this may be inaccurate\n",
      "[mp3 @ 0x7fd5b1f092c0] Estimating duration from bitrate, this may be inaccurate\n",
      "[mp3 @ 0x7fd5b2a11680] Estimating duration from bitrate, this may be inaccurate\n",
      "[mp3 @ 0x7fd5b2804a40] Estimating duration from bitrate, this may be inaccurate\n",
      "[mp3 @ 0x7fd5b2804d80] Estimating duration from bitrate, this may be inaccurate\n",
      "[mp3 @ 0x7fd5b2904280] Estimating duration from bitrate, this may be inaccurate\n",
      "[mp3 @ 0x7fd5b2804a40] Estimating duration from bitrate, this may be inaccurate\n",
      "    Last message repeated 2 times\n",
      "[mp3 @ 0x7fd5b2904280] Estimating duration from bitrate, this may be inaccurate\n",
      "[mp3 @ 0x7fd5b2804a40] Estimating duration from bitrate, this may be inaccurate\n",
      "[mp3 @ 0x7fd5b1f092c0] Estimating duration from bitrate, this may be inaccurate\n",
      "[mp3 @ 0x7fd5b2804a40] Estimating duration from bitrate, this may be inaccurate\n",
      "[mp3 @ 0x7fd5b2804d80] Estimating duration from bitrate, this may be inaccurate\n",
      "[mp3 @ 0x7fd5b2a11680] Estimating duration from bitrate, this may be inaccurate\n",
      "[mp3 @ 0x7fd5b2804a40] Estimating duration from bitrate, this may be inaccurate\n",
      "    Last message repeated 3 times\n",
      "[mp3 @ 0x7fd5b2804d80] Estimating duration from bitrate, this may be inaccurate\n",
      "[mp3 @ 0x7fd5b2804a40] Estimating duration from bitrate, this may be inaccurate\n",
      "    Last message repeated 5 times\n",
      "[mp3 @ 0x7fd5b1f092c0] Estimating duration from bitrate, this may be inaccurate\n",
      "[mp3 @ 0x7fd5b2904380] Estimating duration from bitrate, this may be inaccurate\n",
      "[mp3 @ 0x7fd5b2804a40] Estimating duration from bitrate, this may be inaccurate\n",
      "    Last message repeated 4 times\n",
      "[mp3 @ 0x7fd5b2a11680] Estimating duration from bitrate, this may be inaccurate\n",
      "[mp3 @ 0x7fd5b2804a40] Estimating duration from bitrate, this may be inaccurate\n",
      "[mp3 @ 0x7fd5b2805700] Estimating duration from bitrate, this may be inaccurate\n",
      "[mp3 @ 0x7fd5b2804c40] Estimating duration from bitrate, this may be inaccurate\n",
      "[mp3 @ 0x7fd5b2804b80] Estimating duration from bitrate, this may be inaccurate\n",
      "[mp3 @ 0x7fd5b2804a40] Estimating duration from bitrate, this may be inaccurate\n",
      "[mp3 @ 0x7fd5b2804a40] Estimating duration from bitrate, this may be inaccurate\n",
      "[mp3 @ 0x7fd5b1f09380] Estimating duration from bitrate, this may be inaccurate\n",
      "[mp3 @ 0x7fd5b2904280] Estimating duration from bitrate, this may be inaccurate\n",
      "    Last message repeated 1 times\n",
      "[mp3 @ 0x7fd5b1f09380] Estimating duration from bitrate, this may be inaccurate\n",
      "[mp3 @ 0x7fd5b2804a40] Estimating duration from bitrate, this may be inaccurate\n",
      "[mp3 @ 0x7fd5b2c04080] Estimating duration from bitrate, this may be inaccurate\n",
      "[mp3 @ 0x7fd5b1f092c0] Estimating duration from bitrate, this may be inaccurate\n",
      "[mp3 @ 0x7fd5b2f04080] Estimating duration from bitrate, this may be inaccurate\n",
      "[mp3 @ 0x7fd5b2904280] Estimating duration from bitrate, this may be inaccurate\n",
      "[mp3 @ 0x7fd5b2e04140] Estimating duration from bitrate, this may be inaccurate\n",
      "[mp3 @ 0x7fd5b2904340] Estimating duration from bitrate, this may be inaccurate\n",
      "[mp3 @ 0x7fd5b1f060c0] Estimating duration from bitrate, this may be inaccurate\n",
      "[mp3 @ 0x7fd5b2804a40] Estimating duration from bitrate, this may be inaccurate\n",
      "[mp3 @ 0x7fd5b2804d80] Estimating duration from bitrate, this may be inaccurate\n",
      "[mp3 @ 0x7fd5b2a11680] Estimating duration from bitrate, this may be inaccurate\n",
      "[mp3 @ 0x7fd5b2804a40] Estimating duration from bitrate, this may be inaccurate\n",
      "    Last message repeated 3 times\n",
      "[mp3 @ 0x7fd5b2804d80] Estimating duration from bitrate, this may be inaccurate\n",
      "[mp3 @ 0x7fd5b2804a40] Estimating duration from bitrate, this may be inaccurate\n",
      "[mp3 @ 0x7fd5b2a11680] Estimating duration from bitrate, this may be inaccurate\n",
      "[mp3 @ 0x7fd5b2804a40] Estimating duration from bitrate, this may be inaccurate\n",
      "[mp3 @ 0x7fd5b2a11680] Estimating duration from bitrate, this may be inaccurate\n",
      "[mp3 @ 0x7fd5b2904280] Estimating duration from bitrate, this may be inaccurate\n",
      "    Last message repeated 1 times\n",
      "[mp3 @ 0x7fd5b2904280] Estimating duration from bitrate, this may be inaccurate\n",
      "[mp3 @ 0x7fd5b2804a40] Estimating duration from bitrate, this may be inaccurate\n",
      "    Last message repeated 2 times\n",
      "[mp3 @ 0x7fd5b2a11680] Estimating duration from bitrate, this may be inaccurate\n",
      "[mp3 @ 0x7fd5b2804a40] Estimating duration from bitrate, this may be inaccurate\n",
      "[mp3 @ 0x7fd5b2805700] Estimating duration from bitrate, this may be inaccurate\n",
      "[mp3 @ 0x7fd5b2a11680] Estimating duration from bitrate, this may be inaccurate\n",
      "[mp3 @ 0x7fd5b2804a40] Estimating duration from bitrate, this may be inaccurate\n"
     ]
    },
    {
     "name": "stderr",
     "output_type": "stream",
     "text": [
      "    Last message repeated 3 times\n",
      "[mp3 @ 0x7fd5b1f092c0] Estimating duration from bitrate, this may be inaccurate\n",
      "[mp3 @ 0x7fd5b2a11680] Estimating duration from bitrate, this may be inaccurate\n",
      "    Last message repeated 1 times\n",
      "[mp3 @ 0x7fd5b2804a40] Estimating duration from bitrate, this may be inaccurate\n",
      "[mp3 @ 0x7fd5b2904280] Estimating duration from bitrate, this may be inaccurate\n",
      "[mp3 @ 0x7fd5b2804c00] Estimating duration from bitrate, this may be inaccurate\n",
      "[mp3 @ 0x7fd5b2804b00] Estimating duration from bitrate, this may be inaccurate\n",
      "[mp3 @ 0x7fd5b2a11680] Estimating duration from bitrate, this may be inaccurate\n",
      "[mp3 @ 0x7fd5b2804a40] Estimating duration from bitrate, this may be inaccurate\n",
      "    Last message repeated 1 times\n",
      "[mp3 @ 0x7fd5b1f092c0] Estimating duration from bitrate, this may be inaccurate\n",
      "[mp3 @ 0x7fd5b2804a40] Estimating duration from bitrate, this may be inaccurate\n",
      "[mp3 @ 0x7fd5b2805700] Estimating duration from bitrate, this may be inaccurate\n",
      "[mp3 @ 0x7fd5b2804a40] Estimating duration from bitrate, this may be inaccurate\n"
     ]
    },
    {
     "name": "stdout",
     "output_type": "stream",
     "text": [
      "Generate full audio: ./TheMysteriousAffairatStyles/project_file/audio/863-1_txt.mp3\n",
      "./TheMysteriousAffairatStyles/project_file/audio/863-1_txt.mp3\n"
     ]
    },
    {
     "name": "stderr",
     "output_type": "stream",
     "text": [
      "    Last message repeated 1 times\n",
      "[mp3 @ 0x7fd5b2a11680] Estimating duration from bitrate, this may be inaccurate\n",
      "    Last message repeated 1 times\n",
      "[mp3 @ 0x7fd5b2804a40] Estimating duration from bitrate, this may be inaccurate\n",
      "[mp3 @ 0x7fd5b2904280] Estimating duration from bitrate, this may be inaccurate\n",
      "[mp3 @ 0x7fd5b1f092c0] Estimating duration from bitrate, this may be inaccurate\n",
      "[mp3 @ 0x7fd5b2804a40] Estimating duration from bitrate, this may be inaccurate\n",
      "[mp3 @ 0x7fd5b2805700] Estimating duration from bitrate, this may be inaccurate\n",
      "[mp3 @ 0x7fd5b2804a40] Estimating duration from bitrate, this may be inaccurate\n",
      "[mp3 @ 0x7fd5b2904440] Estimating duration from bitrate, this may be inaccurate\n",
      "[mp3 @ 0x7fd5b2a11680] Estimating duration from bitrate, this may be inaccurate\n",
      "size=   91648kB time=06:31:19.15 bitrate=  32.0kbits/s speed=4.27e+03x    \r",
      "[mp3 @ 0x7fd5b1f092c0] Estimating duration from bitrate, this may be inaccurate\n",
      "[mp3 @ 0x7fd5b2804a40] Estimating duration from bitrate, this may be inaccurate\n",
      "    Last message repeated 1 times\n",
      "size=   92488kB time=06:34:36.84 bitrate=  32.0kbits/s speed=4.26e+03x    \n",
      "video:0kB audio:92488kB subtitle:0kB other streams:0kB global headers:0kB muxing overhead: 0.000250%\n"
     ]
    }
   ],
   "source": [
    "# Merge audio files => full length\n",
    "print(test_tta.merge_audio_files(file_name))"
   ]
  },
  {
   "cell_type": "code",
   "execution_count": 16,
   "id": "b382e4e1",
   "metadata": {},
   "outputs": [
    {
     "name": "stderr",
     "output_type": "stream",
     "text": [
      "ffmpeg version 5.1.2 Copyright (c) 2000-2022 the FFmpeg developers\n",
      "  built with Apple clang version 14.0.0 (clang-1400.0.29.102)\n",
      "  configuration: --prefix=/usr/local/Cellar/ffmpeg/5.1.2 --enable-shared --enable-pthreads --enable-version3 --cc=clang --host-cflags= --host-ldflags= --enable-ffplay --enable-gnutls --enable-gpl --enable-libaom --enable-libbluray --enable-libdav1d --enable-libmp3lame --enable-libopus --enable-librav1e --enable-librist --enable-librubberband --enable-libsnappy --enable-libsrt --enable-libtesseract --enable-libtheora --enable-libvidstab --enable-libvmaf --enable-libvorbis --enable-libvpx --enable-libwebp --enable-libx264 --enable-libx265 --enable-libxml2 --enable-libxvid --enable-lzma --enable-libfontconfig --enable-libfreetype --enable-frei0r --enable-libass --enable-libopencore-amrnb --enable-libopencore-amrwb --enable-libopenjpeg --enable-libspeex --enable-libsoxr --enable-libzmq --enable-libzimg --disable-libjack --disable-indev=jack --enable-videotoolbox\n",
      "  libavutil      57. 28.100 / 57. 28.100\n",
      "  libavcodec     59. 37.100 / 59. 37.100\n",
      "  libavformat    59. 27.100 / 59. 27.100\n",
      "  libavdevice    59.  7.100 / 59.  7.100\n",
      "  libavfilter     8. 44.100 /  8. 44.100\n",
      "  libswscale      6.  7.100 /  6.  7.100\n",
      "  libswresample   4.  7.100 /  4.  7.100\n",
      "  libpostproc    56.  6.100 / 56.  6.100\n",
      "Input #0, png_pipe, from './TheMysteriousAffairatStyles/project_file/image/863-1_txt.png':\n",
      "  Duration: N/A, bitrate: N/A\n",
      "  Stream #0:0: Video: png, rgba(pc), 1280x720 [SAR 2835:2835 DAR 16:9], 25 fps, 25 tbr, 25 tbn\n",
      "Input #1, mp3, from './TheMysteriousAffairatStyles/project_file/audio/863-1_txt.mp3':\n",
      "  Metadata:\n",
      "    encoder         : Lavf59.27.100\n",
      "  Duration: 06:34:36.84, start: 0.022042, bitrate: 32 kb/s\n",
      "  Stream #1:0: Audio: mp3, 24000 Hz, mono, fltp, 32 kb/s\n",
      "Stream mapping:\n",
      "  Stream #0:0 -> #0:0 (png (native) -> h264 (libx264))\n",
      "  Stream #1:0 -> #0:1 (mp3 (mp3float) -> aac (native))\n",
      "Press [q] to stop, [?] for help\n",
      "[libx264 @ 0x7f968cb06240] using SAR=1/1\n",
      "[libx264 @ 0x7f968cb06240] using cpu capabilities: MMX2 SSE2Fast SSSE3 SSE4.2 AVX FMA3 BMI2 AVX2\n",
      "[libx264 @ 0x7f968cb06240] profile High, level 3.1, 4:2:0, 8-bit\n",
      "[libx264 @ 0x7f968cb06240] 264 - core 164 r3095 baee400 - H.264/MPEG-4 AVC codec - Copyleft 2003-2022 - http://www.videolan.org/x264.html - options: cabac=1 ref=3 deblock=1:-3:-3 analyse=0x3:0x113 me=hex subme=7 psy=1 psy_rd=2.00:0.70 mixed_ref=1 me_range=16 chroma_me=1 trellis=1 8x8dct=1 cqm=0 deadzone=21,11 fast_pskip=1 chroma_qp_offset=-4 threads=12 lookahead_threads=2 sliced_threads=0 nr=0 decimate=1 interlaced=0 bluray_compat=0 constrained_intra=0 bframes=3 b_pyramid=2 b_adapt=1 b_bias=0 direct=1 weightb=1 open_gop=0 weightp=2 keyint=250 keyint_min=25 scenecut=40 intra_refresh=0 rc_lookahead=40 rc=crf mbtree=1 crf=23.0 qcomp=0.60 qpmin=0 qpmax=69 qpstep=4 ip_ratio=1.40 aq=1:1.20\n",
      "[aac @ 0x7f968cb07740] Too many bits 8192.000000 > 6144 per frame requested, clamping to max\n",
      "Output #0, mp4, to './TheMysteriousAffairatStyles/project_file/video/863-1_txt.mp4':\n",
      "  Metadata:\n",
      "    encoder         : Lavf59.27.100\n",
      "  Stream #0:0: Video: h264 (avc1 / 0x31637661), yuv420p(tv, progressive), 1280x720 [SAR 1:1 DAR 16:9], q=2-31, 25 fps, 12800 tbn\n",
      "    Metadata:\n",
      "      encoder         : Lavc59.37.100 libx264\n",
      "    Side data:\n",
      "      cpb: bitrate max/min/avg: 0/0/0 buffer size: 0 vbv_delay: N/A\n",
      "  Stream #0:1: Audio: aac (LC) (mp4a / 0x6134706D), 24000 Hz, mono, fltp, 144 kb/s\n",
      "    Metadata:\n",
      "      encoder         : Lavc59.37.100 aac\n",
      "frame=591939 fps= 95 q=28.0 size=  723200kB time=06:34:35.26 bitrate= 250.2kbits/s speed= 3.8x    \r"
     ]
    },
    {
     "name": "stdout",
     "output_type": "stream",
     "text": [
      "Generate full video: ./TheMysteriousAffairatStyles/project_file/video/863-1_txt.mp4\n",
      "./TheMysteriousAffairatStyles/project_file/video/863-1_txt.mp4\n"
     ]
    },
    {
     "name": "stderr",
     "output_type": "stream",
     "text": [
      "frame=591977 fps= 95 q=-1.0 Lsize=  737670kB time=06:34:38.96 bitrate= 255.2kbits/s speed= 3.8x    \n",
      "video:435493kB audio:287877kB subtitle:0kB other streams:0kB global headers:0kB muxing overhead: 1.976793%\n",
      "[libx264 @ 0x7f968cb06240] frame I:2368  Avg QP:12.20  size:102923\n",
      "[libx264 @ 0x7f968cb06240] frame P:149178 Avg QP:12.56  size:   984\n",
      "[libx264 @ 0x7f968cb06240] frame B:440431 Avg QP:20.34  size:   126\n",
      "[libx264 @ 0x7f968cb06240] consecutive B-frames:  0.8%  0.0%  0.0% 99.2%\n",
      "[libx264 @ 0x7f968cb06240] mb I  I16..4:  5.5% 74.8% 19.7%\n",
      "[libx264 @ 0x7f968cb06240] mb P  I16..4:  0.0%  0.0%  0.0%  P16..4:  2.9%  0.3%  0.4%  0.0%  0.0%    skip:96.4%\n",
      "[libx264 @ 0x7f968cb06240] mb B  I16..4:  0.0%  0.0%  0.0%  B16..8:  3.0%  0.0%  0.0%  direct: 0.0%  skip:97.0%  L0:67.8% L1:32.1% BI: 0.1%\n",
      "[libx264 @ 0x7f968cb06240] 8x8 transform intra:74.8% inter:92.9%\n",
      "[libx264 @ 0x7f968cb06240] coded y,uvDC,uvAC intra: 95.3% 98.4% 95.4% inter: 0.5% 0.1% 0.0%\n",
      "[libx264 @ 0x7f968cb06240] i16 v,h,dc,p: 14%  6%  3% 76%\n",
      "[libx264 @ 0x7f968cb06240] i8 v,h,dc,ddl,ddr,vr,hd,vl,hu: 30% 20% 18%  4%  4%  5%  6%  7%  6%\n",
      "[libx264 @ 0x7f968cb06240] i4 v,h,dc,ddl,ddr,vr,hd,vl,hu: 31% 20%  8%  5%  7%  7%  9%  7%  6%\n",
      "[libx264 @ 0x7f968cb06240] i8c dc,h,v,p: 44% 19% 28% 10%\n",
      "[libx264 @ 0x7f968cb06240] Weighted P-Frames: Y:0.0% UV:0.0%\n",
      "[libx264 @ 0x7f968cb06240] ref P L0: 53.0%  0.1% 45.9%  1.1%\n",
      "[libx264 @ 0x7f968cb06240] ref B L0: 40.9% 59.0%  0.1%\n",
      "[libx264 @ 0x7f968cb06240] ref B L1: 99.7%  0.3%\n",
      "[libx264 @ 0x7f968cb06240] kb/s:150.66\n",
      "[aac @ 0x7f968cb07740] Qavg: 65507.863\n"
     ]
    }
   ],
   "source": [
    "# Audio + Image => Video\n",
    "print(test_tta.merge_video_file(file_name))"
   ]
  },
  {
   "cell_type": "code",
   "execution_count": 15,
   "id": "004bc195",
   "metadata": {},
   "outputs": [
    {
     "name": "stdout",
     "output_type": "stream",
     "text": [
      "0:00:00 Chapter 1\n",
      "0:28:30 Chaptor 2\n",
      "0:46:21 Chaptor 3\n",
      "1:01:34 Chaptor 4\n",
      "1:43:54 Chaptor 5\n",
      "2:39:37 Chaptor 6\n",
      "3:05:02 Chaptor 7\n",
      "3:30:16 Chaptor 8\n",
      "4:05:05 Chaptor 9\n",
      "4:32:50 Chaptor 10\n",
      "5:05:38 Chaptor 11\n",
      "5:43:04 Chaptor 12\n",
      "6:06:35 Chaptor 13\n"
     ]
    }
   ],
   "source": [
    "print(test_tta.gen_youtube_chapter_marker(file_name))"
   ]
  },
  {
   "cell_type": "code",
   "execution_count": null,
   "id": "a692882a",
   "metadata": {},
   "outputs": [],
   "source": []
  }
 ],
 "metadata": {
  "kernelspec": {
   "display_name": "Python tts env",
   "language": "python",
   "name": "tts_env"
  },
  "language_info": {
   "codemirror_mode": {
    "name": "ipython",
    "version": 3
   },
   "file_extension": ".py",
   "mimetype": "text/x-python",
   "name": "python",
   "nbconvert_exporter": "python",
   "pygments_lexer": "ipython3",
   "version": "3.9.12"
  }
 },
 "nbformat": 4,
 "nbformat_minor": 5
}
